HIERARCHY
ROOT Hips
{
	OFFSET 0.000000 0.000000 0.000000
	CHANNELS 6 Xposition Yposition Zposition Zrotation Yrotation Xrotation 
	JOINT LHipJoint
	{
		OFFSET 0.000000 0.000000 0.000000
		CHANNELS 3 Zrotation Yrotation Xrotation
		JOINT LeftUpLeg
		{
			OFFSET 1.363060 -1.794630 0.839290
			CHANNELS 3 Zrotation Yrotation Xrotation
			JOINT LeftLeg
			{
				OFFSET 2.448110 -6.726130 0.000000
				CHANNELS 3 Zrotation Yrotation Xrotation
				JOINT LeftFoot
				{
					OFFSET 2.562200 -7.039590 0.000000
					CHANNELS 3 Zrotation Yrotation Xrotation
					JOINT LeftToeBase
					{
						OFFSET 0.157640 -0.433110 2.322550
						CHANNELS 3 Zrotation Yrotation Xrotation
						End Site
						{
							OFFSET 0.000000 0.000000 0.000000
						}
					}
				}
			}
		}
	}
	JOINT RHipJoint
	{
		OFFSET 0.000000 0.000000 0.000000
		CHANNELS 3 Zrotation Yrotation Xrotation
		JOINT RightUpLeg
		{
			OFFSET -1.305520 -1.794630 0.839290
			CHANNELS 3 Zrotation Yrotation Xrotation
			JOINT RightLeg
			{
				OFFSET -2.542530 -6.985550 0.000000
				CHANNELS 3 Zrotation Yrotation Xrotation
				JOINT RightFoot
				{
					OFFSET -2.568260 -7.056230 0.000000
					CHANNELS 3 Zrotation Yrotation Xrotation
					JOINT RightToeBase
					{
						OFFSET -0.164730 -0.452590 2.363150
						CHANNELS 3 Zrotation Yrotation Xrotation
						End Site
						{
							OFFSET 0.000000 0.000000 0.000000
						}
					}
				}
			}
		}
	}
	JOINT LowerBack
	{
		OFFSET 0.000000 0.000000 0.000000
		CHANNELS 3 Zrotation Yrotation Xrotation
		JOINT Spine
		{
			OFFSET 0.028270 2.035590 -0.193380
			CHANNELS 3 Zrotation Yrotation Xrotation
			JOINT Spine1
			{
				OFFSET 0.056720 2.048850 -0.042750
				CHANNELS 3 Zrotation Yrotation Xrotation
				JOINT Neck
				{
					OFFSET 0.000000 0.000000 0.000000
					CHANNELS 3 Zrotation Yrotation Xrotation
					JOINT Neck1
					{
						OFFSET -0.054170 1.746240 0.172020
						CHANNELS 3 Zrotation Yrotation Xrotation
						JOINT Head
						{
							OFFSET 0.104070 1.761360 -0.123970
							CHANNELS 3 Zrotation Yrotation Xrotation
							End Site
							{
								OFFSET 0.000000 0.000000 0.000000
							}
						}
					}
				}
				JOINT LeftShoulder
				{
					OFFSET 0.000000 0.000000 0.000000
					CHANNELS 3 Zrotation Yrotation Xrotation
					JOINT LeftArm
					{
						OFFSET 3.362410 1.200890 -0.311210
						CHANNELS 3 Zrotation Yrotation Xrotation
						JOINT LeftForeArm
						{
							OFFSET 4.983000 -0.000000 -0.000000
							CHANNELS 3 Zrotation Yrotation Xrotation
							JOINT LeftHand
							{
								OFFSET 3.483560 -0.000000 -0.000000
								CHANNELS 3 Zrotation Yrotation Xrotation
								JOINT LeftFingerBase
								{
									OFFSET 0.000000 0.000000 0.000000
									CHANNELS 3 Zrotation Yrotation Xrotation
									JOINT LeftHandIndex1
									{
										OFFSET 0.715260 -0.000000 -0.000000
										CHANNELS 3 Zrotation Yrotation Xrotation
										End Site
										{
											OFFSET 0.000000 0.000000 0.000000
										}
									}
								}
								JOINT LThumb
								{
									OFFSET 0.000000 0.000000 0.000000
									CHANNELS 3 Zrotation Yrotation Xrotation
									End Site
									{
										OFFSET 0.000000 0.000000 0.000000
									}
								}
							}
						}
					}
				}
				JOINT RightShoulder
				{
					OFFSET 0.000000 0.000000 0.000000
					CHANNELS 3 Zrotation Yrotation Xrotation
					JOINT RightArm
					{
						OFFSET -3.136600 1.374050 -0.404650
						CHANNELS 3 Zrotation Yrotation Xrotation
						JOINT RightForeArm
						{
							OFFSET -5.241900 -0.000000 -0.000000
							CHANNELS 3 Zrotation Yrotation Xrotation
							JOINT RightHand
							{
								OFFSET -3.444170 -0.000000 -0.000000
								CHANNELS 3 Zrotation Yrotation Xrotation
								JOINT RightFingerBase
								{
									OFFSET 0.000000 0.000000 0.000000
									CHANNELS 3 Zrotation Yrotation Xrotation
									JOINT RightHandIndex1
									{
										OFFSET -0.622530 -0.000000 -0.000000
										CHANNELS 3 Zrotation Yrotation Xrotation
										End Site
										{
											OFFSET 0.000000 0.000000 0.000000
										}
									}
								}
								JOINT RThumb
								{
									OFFSET 0.000000 0.000000 0.000000
									CHANNELS 3 Zrotation Yrotation Xrotation
									End Site
									{
										OFFSET 0.000000 0.000000 0.000000
									}
								}
							}
						}
					}
				}
			}
		}
	}
}
MOTION
Frames: 12
Frame Time: 0.008333
-14.295433 18.121328 -29.534201 7.251825 66.311233 8.293998 1.383763 2.771573 2.853207 -22.308319 -10.273128 -4.716484 5.066152 10.926614 35.477680 6.195374 -8.537307 -47.991528 1.734800 -8.290300 -23.599400 -5.165761 -3.867468 3.691243 21.943145 6.966113 -25.437863 -7.962055 -13.349868 47.333837 -5.005500 9.819340 -44.686035 -1.380300 7.434200 -21.008200 0.310971 -5.123741 5.846402 1.805683 -7.526613 24.382282 1.357006 -3.577398 -13.365340 -5.723991 -11.020223 -22.645784 8.429264 -13.704605 39.585887 -0.117400 -3.484600 17.622900 2.167119 -7.417734 -1.164658 -101.481023 -18.963670 67.051175 25.923921 -28.540228 -7.954448 0.440912 -0.598609 -26.227405 20.267163 7.700427 3.098600 -7.125000 0.000000 0.000000 -5.842300 38.949900 0.874300 0.317688 11.505562 0.857975 80.634848 -1.749224 16.466829 -31.529138 32.857976 -9.746723 0.058790 -0.295694 -12.888867 -34.719727 -2.536345 1.501400 7.125000 0.000000 0.000000 -6.571800 -32.569100 -2.012100 
-14.272989 18.113565 -29.212680 6.180940 66.320056 7.769536 1.462437 2.754623 2.803276 -22.340193 -11.394109 -4.205724 4.962248 10.775924 34.951937 6.585103 -9.155342 -49.557616 1.603700 -7.986600 -22.673300 -5.180873 -3.860078 3.675005 22.239221 7.254708 -25.570509 -7.867023 -13.240173 46.815699 -5.025541 9.308706 -44.666791 -1.577000 7.923100 -22.480600 0.390856 -5.042940 5.304315 2.100732 -7.478018 23.791299 1.230283 -3.528437 -13.240709 -5.913301 -11.015493 -22.517435 8.472826 -13.666457 39.863494 -0.063100 -3.468700 17.679800 2.048295 -7.367937 -1.127219 -100.897551 -17.992960 66.592355 25.568805 -28.096453 -7.712051 0.432152 -0.584972 -26.496157 19.396298 8.532208 3.234200 -7.125000 0.000000 0.000000 -6.705700 39.735300 0.874700 0.407277 11.494594 0.858790 81.150230 -2.006911 16.581179 -31.405816 32.731581 -9.685231 0.057063 -0.294734 -12.487709 -34.860909 -2.276540 1.329200 7.125000 0.000000 0.000000 -6.668300 -32.258600 -2.092200 
-14.244652 18.135262 -28.886389 4.781402 66.286638 6.886550 1.538904 2.724833 2.737073 -22.178304 -12.226067 -3.841108 4.891749 10.650419 34.494938 6.839386 -8.947402 -50.500502 1.476900 -7.679000 -21.743200 -5.270120 -3.793399 3.662341 22.873838 9.201698 -24.776467 -7.771343 -13.113238 46.197473 -5.456634 7.999982 -46.234550 -1.761700 8.350900 -23.785100 0.497866 -4.953878 4.778884 2.539127 -7.424620 23.243020 1.059539 -3.481085 -13.090962 -6.113589 -11.011487 -22.420846 8.512917 -13.622064 40.127239 -0.008300 -3.450100 17.750900 1.927894 -7.323238 -1.092477 -100.319601 -17.053016 66.075314 25.245259 -27.682727 -7.484610 0.419215 -0.571195 -26.647003 18.762719 9.560257 3.454800 -7.125000 0.000000 0.000000 -7.413200 40.733300 0.784800 0.467485 11.484261 0.858889 81.641648 -2.206338 16.709904 -31.276241 32.597997 -9.619332 0.057576 -0.293417 -12.102537 -34.978826 -2.104428 1.215400 7.125000 0.000000 0.000000 -6.753100 -32.053100 -2.152700 
-14.211453 18.142276 -28.567019 4.351456 66.423485 6.854298 1.577605 2.720280 2.724275 -22.346115 -13.099626 -3.632551 4.863508 10.556120 34.141312 7.095143 -7.981796 -51.367573 1.552900 -7.865000 -22.304800 -5.258717 -3.818740 3.617071 22.945761 8.358226 -25.140926 -7.643902 -12.997752 45.725412 -5.233297 9.073959 -45.425281 -1.691000 8.190500 -23.294100 0.548442 -4.974083 4.219621 2.527873 -7.470183 22.731316 1.022373 -3.501320 -12.873370 -6.288037 -10.993094 -22.330348 8.591808 -13.570388 40.344832 0.060500 -3.427200 17.805600 1.864256 -7.291457 -1.046700 -99.678738 -16.152401 65.532455 25.016113 -27.369501 -7.317725 0.413940 -0.549504 -26.856317 18.113037 9.889303 3.422500 -7.125000 0.000000 0.000000 -8.037000 40.990800 0.800500 0.581598 11.476317 0.855806 82.126600 -2.319295 16.806967 -31.118645 32.435111 -9.536187 0.058964 -0.293796 -11.645012 -35.115253 -1.926540 1.095700 7.125000 0.000000 0.000000 -6.852100 -31.837400 -2.220500 
-14.179562 18.147794 -28.245218 3.832847 66.478706 6.535473 1.604905 2.709514 2.702626 -22.411610 -13.535687 -3.382936 4.840043 10.474712 33.825390 7.254161 -6.983732 -51.883280 1.605200 -7.990100 -22.684000 -5.267234 -3.819612 3.564428 23.153937 7.952082 -25.093819 -7.549202 -12.900358 45.314670 -5.102691 9.497791 -44.917263 -1.652800 8.102100 -23.024700 0.533325 -4.950193 3.900387 2.559196 -7.462580 22.301736 1.030034 -3.482051 -12.756321 -6.457607 -11.011842 -22.273164 8.669016 -13.579557 40.574982 0.119500 -3.427500 17.883000 1.805130 -7.246235 -1.007206 -99.073916 -15.213592 64.928420 24.785987 -27.057038 -7.148386 0.405527 -0.533157 -26.806757 17.436042 10.714955 3.530700 -7.125000 0.000000 0.000000 -8.784200 41.757800 0.708600 0.671465 11.462264 0.850319 82.551801 -2.396753 16.889153 -30.922456 32.242642 -9.432902 0.064087 -0.296390 -11.217928 -35.361766 -1.799451 1.011900 7.125000 0.000000 0.000000 -7.044700 -31.679000 -2.310800 
-14.145895 18.156491 -27.931459 3.503013 66.430862 6.575198 1.631740 2.703597 2.674812 -22.478372 -13.974375 -3.354665 4.822163 10.429626 33.649335 7.417286 -6.628566 -52.469826 1.631200 -8.051500 -22.870600 -5.266040 -3.828040 3.542360 23.204684 7.762926 -25.355171 -7.496940 -12.851541 45.092942 -5.075449 9.667349 -44.827544 -1.702300 8.216300 -23.373100 0.624614 -4.941619 3.426110 2.421956 -7.445073 21.748616 1.005095 -3.473415 -12.569697 -6.621441 -10.988314 -22.161653 8.776840 -13.536803 40.803366 0.197200 -3.402900 17.933000 1.751364 -7.212114 -0.954404 -98.455728 -14.268616 64.257115 24.607758 -26.792864 -7.007640 0.401484 -0.518062 -26.756617 16.531353 11.489118 3.551900 -7.125000 0.000000 0.000000 -9.743200 42.442900 0.621200 0.801782 11.454548 0.852019 82.961686 -2.449324 16.962074 -30.703818 32.014455 -9.307568 0.069823 -0.296937 -10.932497 -35.426017 -1.680522 0.928300 7.125000 0.000000 0.000000 -7.092000 -31.532000 -2.351700 
-14.114940 18.154153 -27.621160 3.600651 66.195170 6.875106 1.639519 2.695255 2.654993 -22.762651 -14.280833 -3.211283 4.808178 10.388297 33.490307 7.574602 -6.232570 -53.023104 1.612900 -8.008400 -22.739600 -5.244293 -3.853625 3.512461 23.042023 6.964377 -25.800624 -7.442247 -12.820403 44.969386 -4.821093 10.658728 -43.942399 -1.584400 7.940700 -22.534100 0.600377 -4.875305 3.156668 2.079018 -7.342234 21.225008 1.113103 -3.407088 -12.468633 -6.732642 -10.941570 -22.073772 8.798401 -13.453039 41.023694 0.244000 -3.374900 17.972200 1.716377 -7.168812 -0.896681 -97.832497 -13.227742 63.490279 24.526903 -26.648003 -6.924603 0.395668 -0.502639 -26.538237 15.986391 12.372856 3.665800 -7.125000 0.000000 0.000000 -10.427000 43.266800 0.451200 0.945457 11.436112 0.852325 83.360659 -2.464769 16.828837 -30.516897 31.819994 -9.186783 0.068777 -0.290841 -11.082651 -34.956747 -1.392708 0.717900 7.125000 0.000000 0.000000 -6.695800 -31.191000 -2.273900 
-14.083518 18.159858 -27.301790 3.432922 65.853755 6.901081 1.651592 2.680410 2.627990 -22.888973 -14.564339 -3.046482 4.795821 10.355588 33.364966 7.725884 -5.986545 -53.563675 1.592100 -7.959200 -22.590100 -5.237849 -3.863488 3.493149 23.066145 6.650574 -26.028600 -7.395576 -12.795907 44.859206 -4.544723 11.509968 -42.936483 -1.444300 7.597500 -21.497900 0.538221 -4.766049 2.850476 1.821008 -7.203043 20.774190 1.227745 -3.318612 -12.320640 -6.823689 -10.888623 -22.026065 8.799936 -13.358529 41.211980 0.281900 -3.343700 18.018200 1.685110 -7.128412 -0.838648 -97.176074 -12.207177 62.641479 24.478322 -26.531463 -6.856528 0.397468 -0.482777 -26.488574 15.140408 12.722987 3.544300 -7.125000 0.000000 0.000000 -11.271300 43.509300 0.420300 1.069890 11.419868 0.843002 83.775225 -2.503221 17.284330 -29.955522 31.262693 -8.904309 0.093551 -0.320906 -9.462748 -36.380377 -1.495180 0.797100 7.125000 0.000000 0.000000 -7.854800 -31.264200 -2.659600 
-14.051066 18.170332 -26.986067 3.387636 65.570309 7.152054 1.659933 2.669366 2.600851 -23.011508 -14.966228 -3.024675 4.790142 10.329077 33.245082 7.807630 -5.468630 -53.848405 1.579400 -7.928700 -22.497700 -5.229446 -3.876559 3.475502 23.053335 6.351530 -26.401059 -7.365925 -12.786762 44.802700 -4.393363 12.064321 -42.419931 -1.406500 7.501500 -21.209800 0.573515 -4.669270 2.512955 1.458467 -7.058876 20.187858 1.314157 -3.234811 -12.156775 -6.928468 -10.866169 -21.882336 8.875869 -13.333481 41.353899 0.332300 -3.334400 18.009100 1.657387 -7.088145 -0.772434 -96.494087 -11.090642 61.940507 24.563117 -26.588739 -6.866114 0.373431 -0.473960 -26.392838 15.349989 15.044231 4.204100 -7.125000 0.000000 0.000000 -11.682200 45.854600 -0.249800 1.220362 11.403745 0.843570 84.134830 -2.500663 17.339414 -29.573273 30.863818 -8.688901 0.106573 -0.330331 -9.087294 -36.606326 -1.374433 0.702800 7.125000 0.000000 0.000000 -8.032400 -31.097600 -2.753200 
-14.016557 18.183331 -26.670625 3.279730 65.290201 7.812235 1.682321 2.666376 2.550153 -22.960819 -15.437936 -3.584115 4.789463 10.316944 33.161818 7.836989 -4.924762 -53.962906 1.623100 -8.032400 -22.812400 -5.201412 -3.910240 3.492754 23.030988 6.282639 -27.331205 -7.336747 -12.797679 44.778128 -4.216221 12.627983 -41.817096 -1.279100 7.167400 -20.212100 0.690465 -4.580535 1.764939 1.133460 -6.938713 19.284512 1.334250 -3.171636 -11.751308 -6.984231 -10.793142 -21.737324 8.914601 -13.235583 41.516818 0.367000 -3.293100 17.985600 1.603699 -7.063852 -0.677479 -95.687541 -9.839928 61.179015 24.790883 -26.791677 -6.961137 0.369836 -0.446483 -26.508356 15.308000 15.633365 4.335800 -7.125000 0.000000 0.000000 -11.891900 46.413900 -0.420800 1.401816 11.404508 0.864732 84.434725 -2.485795 17.438715 -29.200010 30.444822 -8.470666 0.122127 -0.338148 -8.799007 -36.681830 -1.398649 0.713500 7.125000 0.000000 0.000000 -8.105900 -31.111700 -2.776100 
-13.986070 18.188288 -26.338443 3.153910 64.642750 7.501706 1.663945 2.640307 2.521632 -22.951830 -14.974910 -3.241408 4.765594 10.289390 33.065561 7.845398 -5.150311 -53.990580 1.542200 -7.839100 -22.226300 -5.220388 -3.911538 3.468982 23.158266 6.100124 -27.110510 -7.315152 -12.787006 44.747716 -4.059404 13.298450 -41.287409 -1.125000 6.737300 -18.939400 0.400403 -4.329472 1.733515 0.806923 -6.634595 19.126596 1.621091 -2.975535 -11.694725 -6.971291 -10.691534 -21.747615 8.857519 -13.083664 41.568718 0.383400 -3.246500 17.996800 1.623057 -7.008365 -0.627668 -95.013420 -8.658686 60.451479 25.011371 -27.018358 -7.058789 0.363395 -0.419943 -26.700166 15.603308 16.284438 4.587600 -7.125000 0.000000 0.000000 -11.812100 47.080400 -0.614700 1.470439 11.368911 0.834905 84.873160 -2.450210 17.428582 -28.801053 30.047937 -8.258406 0.136606 -0.348718 -8.374495 -36.863409 -1.323087 0.649600 7.125000 0.000000 0.000000 -8.253200 -30.998700 -2.850100 
-13.955770 18.189036 -26.023749 3.224221 64.105636 7.461708 1.639675 2.625204 2.504303 -23.012919 -14.642265 -3.059643 4.744970 10.268931 32.987238 7.813184 -5.314471 -53.874032 1.505700 -7.750000 -21.957300 -5.229943 -3.913302 3.456201 23.116440 5.940408 -27.070578 -7.312245 -12.795631 44.788664 -3.877604 13.791409 -40.625269 -1.078400 6.600700 -18.537700 0.316358 -4.100714 1.672015 0.326553 -6.324156 18.930973 1.827340 -2.796984 -11.632510 -6.976048 -10.668009 -21.680032 8.902619 -13.073228 41.520650 0.405200 -3.247700 17.943800 1.665830 -6.959708 -0.573982 -94.334314 -7.493430 59.892926 25.305810 -27.341674 -7.208084 0.355838 -0.388379 -26.928171 16.281631 16.848477 4.943900 -7.125000 0.000000 0.000000 -11.350800 47.710800 -0.768600 1.559214 11.335984 0.807062 85.220131 -2.306266 17.287114 -28.361793 29.597222 -8.015598 0.150671 -0.361427 -8.061925 -36.937537 -1.184966 0.533800 7.125000 0.000000 0.000000 -8.307500 -30.805000 -2.908200 
